<svg width="120" height="80" viewBox="0 0 120 80" fill="none" xmlns="http://www.w3.org/2000/svg">
<g clip-path="url(#clip0_109_3)">
<rect width="120" height="80" rx="5" fill="white"/>
<g clip-path="url(#clip1_109_3)">
<mask id="mask0_109_3" style="mask-type:luminance" maskUnits="userSpaceOnUse" x="21" y="31" width="79" height="20">
<path d="M100 31.0047H21V50.0003H100V31.0047Z" fill="white"/>
</mask>
<g mask="url(#mask0_109_3)">
<path d="M41.2388 36.9764C40.6053 35.6456 39.4041 34.786 37.594 34.786C37.0384 34.7957 36.4925 34.933 35.9983 35.1874C35.5041 35.4418 35.0749 35.8064 34.7437 36.2532L34.6776 36.3337V31.1181C34.6776 31.0879 34.6657 31.059 34.6444 31.0377C34.6231 31.0164 34.5942 31.0044 34.5641 31.0044H32.0049C31.9751 31.005 31.9468 31.0172 31.926 31.0384C31.9051 31.0597 31.8934 31.0883 31.8934 31.1181V46.0791C31.8934 46.1087 31.9052 46.137 31.9261 46.1579C31.947 46.1789 31.9753 46.1906 32.0049 46.1906H34.7458C34.7755 46.1906 34.8041 46.179 34.8253 46.1581C34.8465 46.1372 34.8587 46.1088 34.8593 46.0791V39.7C34.8593 38.4601 35.6848 37.5819 37.0058 37.5819C38.4505 37.5819 38.8158 38.7721 38.8158 39.9851V46.0791C38.8158 46.1087 38.8276 46.137 38.8485 46.1579C38.8694 46.1789 38.8977 46.1906 38.9273 46.1906H41.6619C41.6917 46.1906 41.7203 46.179 41.7415 46.1581C41.7627 46.1372 41.775 46.1088 41.7755 46.0791V39.6214C41.7755 39.4003 41.7755 39.1833 41.7466 38.9726C41.6996 38.2819 41.5276 37.6055 41.2388 36.9764Z" fill="#5A31F4"/>
<path d="M27.553 39.1938C27.553 39.1938 26.1578 38.8652 25.6439 38.7329C25.13 38.6007 24.2322 38.3196 24.2322 37.6398C24.2322 36.9599 24.9566 36.7429 25.6914 36.7429C26.4261 36.7429 27.2434 36.9207 27.3074 37.7369C27.31 37.7663 27.3235 37.7937 27.3453 37.8136C27.3671 37.8335 27.3955 37.8445 27.425 37.8444L30.1267 37.834C30.1426 37.8341 30.1583 37.8308 30.1729 37.8245C30.1875 37.8182 30.2006 37.8089 30.2115 37.7973C30.2223 37.7856 30.2307 37.7719 30.236 37.7569C30.2413 37.7419 30.2434 37.7259 30.2423 37.71C30.0751 35.0981 27.7862 34.164 25.6748 34.164C23.1713 34.164 21.3406 35.8172 21.3406 37.6398C21.3406 38.9706 21.7163 40.2187 24.6697 41.0866C25.1878 41.2375 25.8916 41.4338 26.5066 41.6053C27.2455 41.8119 27.6438 42.124 27.6438 42.6158C27.6438 43.1861 26.8183 43.5828 26.0071 43.5828C24.8328 43.5828 23.9989 43.1468 23.9308 42.3636C23.9273 42.335 23.9134 42.3086 23.8917 42.2896C23.87 42.2705 23.842 42.2601 23.8132 42.2603L21.1177 42.2727C21.1019 42.2727 21.0863 42.2759 21.0717 42.2821C21.0572 42.2883 21.044 42.2973 21.033 42.3087C21.0221 42.32 21.0135 42.3335 21.0078 42.3483C21.0022 42.3631 20.9995 42.3788 21.0001 42.3947C21.1239 44.8599 23.5015 46.1886 25.7182 46.1886C29.0205 46.1886 30.5127 44.3288 30.5127 42.5868C30.5168 41.7685 30.329 39.9046 27.553 39.1938Z" fill="#5A31F4"/>
<path d="M62.3093 34.7818C60.937 34.7818 59.7872 35.5423 59.0463 36.4598V34.8893C59.0463 34.8601 59.0347 34.832 59.0142 34.8111C58.9941 34.7903 58.9661 34.7783 58.9368 34.7777H56.3736C56.3441 34.7777 56.3156 34.7895 56.2947 34.8104C56.2739 34.8313 56.262 34.8597 56.262 34.8893V49.561C56.2627 49.5901 56.2748 49.6182 56.2956 49.6385C56.3165 49.659 56.3445 49.6706 56.3736 49.6706H59.1165C59.1455 49.6706 59.1733 49.659 59.1938 49.6385C59.2143 49.618 59.2258 49.59 59.2258 49.561V44.7379H59.2671C59.7025 45.4033 60.8934 46.201 62.4498 46.201C65.3762 46.201 67.8159 43.7708 67.8159 40.4873C67.8181 37.336 65.3908 34.7818 62.3093 34.7818ZM62.0555 43.4051C61.4779 43.4195 60.9086 43.2611 60.4213 42.9504C59.934 42.6395 59.5499 42.1904 59.3184 41.6602C59.0871 41.1299 59.0186 40.5427 59.1222 39.9734C59.2254 39.4041 59.4961 38.8785 59.899 38.4639C60.3022 38.0491 60.8195 37.7641 61.3852 37.645C61.9506 37.526 62.5388 37.5784 63.0744 37.7955C63.6102 38.0127 64.069 38.3847 64.3927 38.8641C64.7163 39.3436 64.8897 39.9086 64.8914 40.4873C64.8972 40.8655 64.8284 41.2412 64.6892 41.5928C64.5499 41.9444 64.3424 42.265 64.0789 42.5361C63.8156 42.8072 63.5012 43.0235 63.1536 43.1727C62.8065 43.3218 62.4334 43.4008 62.0555 43.4051Z" fill="#5A31F4"/>
<path d="M48.1447 34.1373C45.5875 34.1373 44.312 35.0073 43.2882 35.7037L43.2572 35.7243C43.2045 35.7605 43.1674 35.8153 43.1533 35.8777C43.139 35.9402 43.1489 36.0057 43.1809 36.0611L44.1924 37.8052C44.2112 37.8378 44.2372 37.8659 44.2681 37.8873C44.2992 37.9087 44.3346 37.923 44.3719 37.9292C44.4083 37.9358 44.4456 37.9342 44.4813 37.9245C44.517 37.9149 44.5501 37.8974 44.5783 37.8734L44.6586 37.8073C45.1849 37.365 46.0291 36.774 48.0725 36.6129C49.2096 36.522 50.1921 36.8195 50.9166 37.4973C51.7132 38.233 52.1901 39.4212 52.1901 40.6755C52.1901 42.9837 50.8319 44.4343 48.6504 44.4633C46.8526 44.4529 45.6452 43.5148 45.6452 42.1282C45.6452 41.3925 45.9775 40.9131 46.6257 40.4337C46.6751 40.3983 46.71 40.3461 46.7241 40.2869C46.7382 40.2276 46.7304 40.1652 46.702 40.1113L45.794 38.3921C45.7771 38.3613 45.7544 38.3341 45.7272 38.3122C45.6999 38.2902 45.6686 38.2738 45.6349 38.2639C45.6005 38.2537 45.5645 38.2508 45.529 38.2554C45.4933 38.26 45.4591 38.2721 45.4285 38.2908C44.409 38.8963 43.1582 40.0039 43.2263 42.1323C43.3089 44.8414 45.5586 46.9099 48.4831 46.9946H48.6297H48.8299C52.3054 46.881 54.8152 44.2979 54.8152 40.7953C54.8152 37.5799 52.4746 34.1373 48.1447 34.1373Z" fill="#5A31F4"/>
<path d="M78.6246 35.7904H76.8825C76.8419 35.7909 76.8027 35.8074 76.7738 35.8364C76.7447 35.8653 76.7282 35.9044 76.728 35.9454V39.605C76.7282 39.6458 76.7449 39.6847 76.774 39.7133C76.8029 39.7419 76.8419 39.758 76.8825 39.758H78.6246C79.6854 39.758 80.4678 38.921 80.4678 37.7742C80.4678 36.6273 79.6854 35.7904 78.6246 35.7904Z" fill="#5A31F4"/>
<path d="M83.9764 42.2645C83.9764 42.7955 84.4242 43.091 85.2043 43.091C86.2651 43.091 86.8924 42.5165 86.8924 41.4978V41.2044L85.3035 41.287C84.4653 41.3283 83.9764 41.6776 83.9764 42.2645Z" fill="#5A31F4"/>
<path d="M96.8757 31.0376H73.4709C73.0871 31.0376 72.7067 31.1133 72.3522 31.2605C71.9974 31.4077 71.6751 31.6234 71.4039 31.8953C71.1323 32.1672 70.9171 32.4901 70.7704 32.8453C70.6234 33.2006 70.5482 33.5813 70.5486 33.9657V46.7941C70.5486 47.5703 70.8564 48.3148 71.4045 48.8639C71.9525 49.413 72.6959 49.7217 73.4709 49.7222H96.8757C97.2602 49.7233 97.6412 49.6486 97.9967 49.5022C98.3521 49.3558 98.6753 49.1406 98.9478 48.869C99.2199 48.5974 99.4364 48.2748 99.5842 47.9194C99.7319 47.5641 99.808 47.1831 99.8088 46.7983V33.9698C99.8093 33.5842 99.7341 33.2022 99.587 32.8458C99.4399 32.4894 99.2237 32.1656 98.9513 31.8931C98.6788 31.6206 98.355 31.4047 97.9989 31.2579C97.6428 31.1111 97.2611 31.0362 96.8757 31.0376ZM78.7132 41.1982H76.8722C76.8313 41.1982 76.7921 41.2145 76.7628 41.2436C76.7339 41.2727 76.7174 41.3121 76.7174 41.3532V43.9776C76.7174 44.0187 76.7011 44.0581 76.6722 44.0872C76.6431 44.1162 76.604 44.1326 76.5628 44.1326H75.2664C75.2258 44.132 75.1865 44.1155 75.1576 44.0865C75.1286 44.0576 75.1125 44.0185 75.1118 43.9776V34.5112C75.1118 34.4701 75.1281 34.4307 75.1574 34.4016C75.1863 34.3726 75.2254 34.3563 75.2664 34.3563H78.7132C80.6658 34.3563 82.063 35.78 82.063 37.7783C82.063 39.7765 80.676 41.2023 78.7238 41.2023L78.7132 41.1982ZM88.4137 43.9755C88.4141 43.996 88.4104 44.0164 88.4025 44.0354C88.3949 44.0545 88.3835 44.0718 88.3692 44.0864C88.3546 44.101 88.3376 44.1127 88.3186 44.1206C88.2999 44.1285 88.2794 44.1326 88.2589 44.1326H87.035C87.0145 44.1326 86.9942 44.1285 86.9754 44.1206C86.9563 44.1127 86.9391 44.101 86.9248 44.0864C86.9106 44.0718 86.899 44.0545 86.8915 44.0354C86.8839 44.0164 86.88 43.996 86.8804 43.9755V43.6924C86.8822 43.6676 86.8764 43.6427 86.863 43.6216C86.85 43.6005 86.8304 43.5841 86.807 43.5751C86.7839 43.566 86.7585 43.5647 86.7345 43.5713C86.7104 43.5779 86.6891 43.5921 86.674 43.6118C86.3085 44.0106 85.7141 44.2999 84.7668 44.2999C83.3718 44.2999 82.4489 43.5726 82.4489 42.3162C82.4355 42.0098 82.4987 41.7049 82.6328 41.4292C82.7668 41.1535 82.9677 40.9157 83.2169 40.7374C83.7204 40.3592 84.5005 40.1629 85.6583 40.1175L86.8864 40.0762V39.7166C86.8864 38.9912 86.3993 38.6834 85.617 38.6834C84.8348 38.6834 84.3415 38.9603 84.2262 39.4128C84.2168 39.4448 84.1973 39.4727 84.1702 39.4922C84.1435 39.5117 84.1107 39.5216 84.0774 39.5203H82.866C82.8436 39.5208 82.8215 39.5165 82.801 39.5076C82.7809 39.4986 82.7624 39.4853 82.7476 39.4686C82.7329 39.4518 82.7219 39.4321 82.7157 39.4106C82.7093 39.3892 82.7077 39.3667 82.7111 39.3446C82.8929 38.2701 83.7802 37.4538 85.673 37.4538C87.6832 37.4538 88.4075 38.3899 88.4075 40.1774L88.4137 43.9755ZM96.0379 37.834L93.3137 45.11C92.6944 46.8003 91.6109 47.2343 90.4239 47.2343C90.2005 47.2397 89.9772 47.2126 89.7615 47.1537C89.7278 47.1446 89.6984 47.1248 89.6768 47.0971C89.6557 47.0695 89.6442 47.0356 89.6438 47.0008V45.8952C89.6438 45.8721 89.6488 45.8492 89.6585 45.8283C89.6683 45.8073 89.6824 45.7887 89.7002 45.774C89.7181 45.7591 89.7388 45.7484 89.7611 45.7426C89.7834 45.7368 89.8069 45.736 89.8296 45.7402C90.0168 45.7758 90.2067 45.7938 90.3972 45.794C90.7253 45.8105 91.0496 45.7162 91.3181 45.5262C91.5862 45.3362 91.7831 45.0616 91.8769 44.7463L91.9576 44.4921C91.9701 44.4581 91.9701 44.4208 91.9576 44.3867L89.4107 37.8361C89.4028 37.8127 89.4006 37.7878 89.4045 37.7634C89.4081 37.7389 89.4175 37.7157 89.4314 37.6956C89.4458 37.6755 89.4647 37.659 89.4864 37.6475C89.5082 37.636 89.5326 37.6298 89.5571 37.6295H90.7956C90.8273 37.6298 90.858 37.6396 90.8842 37.6576C90.9103 37.6757 90.9305 37.7011 90.942 37.7307L92.6717 42.3513C92.6832 42.3815 92.7034 42.4075 92.7299 42.4258C92.7566 42.4442 92.7881 42.454 92.8203 42.454C92.8523 42.454 92.8842 42.4442 92.9105 42.4258C92.937 42.4075 92.9575 42.3815 92.9687 42.3513L94.4695 37.7431C94.4793 37.7117 94.4993 37.6844 94.526 37.665C94.5527 37.6457 94.5848 37.6354 94.6177 37.6357H95.8873C95.9117 37.6356 95.9358 37.6413 95.958 37.6523C95.9797 37.6632 95.999 37.6792 96.0136 37.6989C96.0282 37.7186 96.0379 37.7415 96.0421 37.7657C96.0465 37.7898 96.0451 37.8147 96.0379 37.8382V37.834Z" fill="#5A31F4"/>
</g>
</g>
</g>
<defs>
<clipPath id="clip0_109_3">
<rect width="120" height="80" fill="white"/>
</clipPath>
<clipPath id="clip1_109_3">
<rect width="79" height="19" fill="white" transform="translate(21 31)"/>
</clipPath>
</defs>
</svg>
